<svg width="158" height="154" viewBox="0 0 158 154" fill="none" xmlns="http://www.w3.org/2000/svg">
<g filter="url(#filter0_df_77:15)">
<path d="M150.294 39.6925H139.513C138.705 36.8442 137.518 34.1858 136.046 31.7172L143.74 24.0268C145.212 22.5552 145.212 20.1816 143.74 18.7575L137.281 12.3013C135.856 10.7823 133.481 10.7823 132.056 12.2539L124.267 20.0392C121.797 18.6151 119.185 17.4757 116.382 16.7162V5.75026C116.382 3.70898 114.72 2 112.63 2H103.464C101.421 2 99.7115 3.66151 99.7115 5.75026V16.5263C96.8143 17.2384 94.012 18.3302 91.4948 19.7069L83.9905 12.2539C82.5181 10.7823 80.1433 10.7823 78.7185 12.2539L72.2591 18.71C70.7867 20.1816 70.7867 22.5552 72.2591 23.9794L79.3834 31.1001C77.721 33.711 76.4387 36.6068 75.5837 39.645H65.7522C63.7098 39.645 62 41.3065 62 43.3953V52.5573C62 54.5986 63.6623 56.3075 65.7522 56.3075H75.2038C75.9637 59.5831 77.1986 62.6213 78.8609 65.4221L72.2591 72.0206C70.7867 73.4923 70.7867 75.8658 72.2591 77.29L78.7185 83.7461C80.1908 85.2177 82.5656 85.2177 83.9905 83.7461L90.4974 77.2425C93.2996 78.904 96.4343 80.1858 99.7115 80.9928V90.2497C99.7115 92.291 101.374 94 103.464 94H112.583C114.625 94 116.335 92.3385 116.335 90.2497V80.7554C119.517 79.9009 122.462 78.5717 125.169 76.8627L132.056 83.7461C133.528 85.2177 135.903 85.2177 137.328 83.7461L143.787 77.29C145.26 75.8184 145.26 73.4448 143.787 72.0206L136.616 64.8524C138.088 62.194 139.228 59.3457 139.893 56.3075H150.247C152.289 56.3075 153.999 54.646 153.999 52.5573V43.4427C154.047 41.354 152.384 39.6925 150.294 39.6925ZM107.548 61.4828C98.3816 61.4828 94.9138 53.1552 94.9138 48.7931C94.9138 44.431 98.3816 36.5 107.548 36.5C116.715 36.5 120.293 45.2241 120.293 48.7931C120.293 53.5517 116.715 61.4828 107.548 61.4828Z" fill="url(#paint0_linear_77:15)"/>
</g>
<g filter="url(#filter1_bdi_77:15)">
<path d="M116.328 78.5253H102.734C101.716 74.934 100.218 71.582 98.3619 68.4696L108.063 58.773C109.92 56.9174 109.92 53.9247 108.063 52.129L99.919 43.9886C98.1224 42.0733 95.1281 42.0733 93.3315 43.9288L83.5103 53.7451C80.3962 51.9494 77.1025 50.5129 73.5692 49.5552V35.7286C73.5692 33.1548 71.4732 31 68.8382 31H57.2803C54.7052 31 52.5493 33.0949 52.5493 35.7286V49.3158C48.8963 50.2136 45.363 51.5903 42.1891 53.3261L32.7271 43.9288C30.8707 42.0733 27.8764 42.0733 26.0798 43.9288L17.9353 52.0691C16.0789 53.9247 16.0789 56.9174 17.9353 58.7131L26.9182 67.6914C24.8222 70.9835 23.2053 74.6347 22.1273 78.4654H9.73098C7.15589 78.4654 5 80.5604 5 83.194V94.7461C5 97.3199 7.096 99.4747 9.73098 99.4747H21.6482C22.6064 103.605 24.1634 107.436 26.2595 110.967L17.9353 119.287C16.0789 121.142 16.0789 124.135 17.9353 125.931L26.0798 134.071C27.9363 135.927 30.9305 135.927 32.7271 134.071L40.9315 125.871C44.4647 127.966 48.4172 129.582 52.5493 130.6V142.271C52.5493 144.845 54.6453 147 57.2803 147H68.7784C71.3534 147 73.5093 144.905 73.5093 142.271V130.3C77.5217 129.223 81.2346 127.547 84.6481 125.392L93.3315 134.071C95.188 135.927 98.1823 135.927 99.9788 134.071L108.123 125.931C109.98 124.075 109.98 121.083 108.123 119.287L99.0806 110.249C100.937 106.897 102.374 103.305 103.213 99.4747H116.268C118.843 99.4747 120.999 97.3798 120.999 94.7461V83.2539C121.059 80.6202 118.963 78.5253 116.328 78.5253ZM62.4305 106C50.8725 106 46.5 95.5 46.5 90C46.5 84.5 50.8725 74.5 62.4305 74.5C73.9884 74.5 78.5 85.5 78.5 90C78.5 96 73.9884 106 62.4305 106Z" fill="url(#paint1_linear_77:15)" shape-rendering="crispEdges"/>
<path d="M116.328 78.5253H102.734C101.716 74.934 100.218 71.582 98.3619 68.4696L108.063 58.773C109.92 56.9174 109.92 53.9247 108.063 52.129L99.919 43.9886C98.1224 42.0733 95.1281 42.0733 93.3315 43.9288L83.5103 53.7451C80.3962 51.9494 77.1025 50.5129 73.5692 49.5552V35.7286C73.5692 33.1548 71.4732 31 68.8382 31H57.2803C54.7052 31 52.5493 33.0949 52.5493 35.7286V49.3158C48.8963 50.2136 45.363 51.5903 42.1891 53.3261L32.7271 43.9288C30.8707 42.0733 27.8764 42.0733 26.0798 43.9288L17.9353 52.0691C16.0789 53.9247 16.0789 56.9174 17.9353 58.7131L26.9182 67.6914C24.8222 70.9835 23.2053 74.6347 22.1273 78.4654H9.73098C7.15589 78.4654 5 80.5604 5 83.194V94.7461C5 97.3199 7.096 99.4747 9.73098 99.4747H21.6482C22.6064 103.605 24.1634 107.436 26.2595 110.967L17.9353 119.287C16.0789 121.142 16.0789 124.135 17.9353 125.931L26.0798 134.071C27.9363 135.927 30.9305 135.927 32.7271 134.071L40.9315 125.871C44.4647 127.966 48.4172 129.582 52.5493 130.6V142.271C52.5493 144.845 54.6453 147 57.2803 147H68.7784C71.3534 147 73.5093 144.905 73.5093 142.271V130.3C77.5217 129.223 81.2346 127.547 84.6481 125.392L93.3315 134.071C95.188 135.927 98.1823 135.927 99.9788 134.071L108.123 125.931C109.98 124.075 109.98 121.083 108.123 119.287L99.0806 110.249C100.937 106.897 102.374 103.305 103.213 99.4747H116.268C118.843 99.4747 120.999 97.3798 120.999 94.7461V83.2539C121.059 80.6202 118.963 78.5253 116.328 78.5253ZM62.4305 106C50.8725 106 46.5 95.5 46.5 90C46.5 84.5 50.8725 74.5 62.4305 74.5C73.9884 74.5 78.5 85.5 78.5 90C78.5 96 73.9884 106 62.4305 106Z" stroke="url(#paint2_linear_77:15)" stroke-miterlimit="10" shape-rendering="crispEdges"/>
</g>
<defs>
<filter id="filter0_df_77:15" x="58" y="0" width="100" height="100" filterUnits="userSpaceOnUse" color-interpolation-filters="sRGB">
<feFlood flood-opacity="0" result="BackgroundImageFix"/>
<feColorMatrix in="SourceAlpha" type="matrix" values="0 0 0 0 0 0 0 0 0 0 0 0 0 0 0 0 0 0 127 0" result="hardAlpha"/>
<feOffset dy="2"/>
<feGaussianBlur stdDeviation="2"/>
<feComposite in2="hardAlpha" operator="out"/>
<feColorMatrix type="matrix" values="0 0 0 0 0.298039 0 0 0 0 0.454902 0 0 0 0 1 0 0 0 0.25 0"/>
<feBlend mode="normal" in2="BackgroundImageFix" result="effect1_dropShadow_77:15"/>
<feBlend mode="normal" in="SourceGraphic" in2="effect1_dropShadow_77:15" result="shape"/>
<feGaussianBlur stdDeviation="0.5" result="effect2_foregroundBlur_77:15"/>
</filter>
<filter id="filter1_bdi_77:15" x="0.5" y="26.5" width="125" height="127" filterUnits="userSpaceOnUse" color-interpolation-filters="sRGB">
<feFlood flood-opacity="0" result="BackgroundImageFix"/>
<feGaussianBlur in="BackgroundImage" stdDeviation="2"/>
<feComposite in2="SourceAlpha" operator="in" result="effect1_backgroundBlur_77:15"/>
<feColorMatrix in="SourceAlpha" type="matrix" values="0 0 0 0 0 0 0 0 0 0 0 0 0 0 0 0 0 0 127 0" result="hardAlpha"/>
<feOffset dy="2"/>
<feGaussianBlur stdDeviation="2"/>
<feComposite in2="hardAlpha" operator="out"/>
<feColorMatrix type="matrix" values="0 0 0 0 0.298039 0 0 0 0 0.454902 0 0 0 0 1 0 0 0 0.25 0"/>
<feBlend mode="normal" in2="effect1_backgroundBlur_77:15" result="effect2_dropShadow_77:15"/>
<feBlend mode="normal" in="SourceGraphic" in2="effect2_dropShadow_77:15" result="shape"/>
<feColorMatrix in="SourceAlpha" type="matrix" values="0 0 0 0 0 0 0 0 0 0 0 0 0 0 0 0 0 0 127 0" result="hardAlpha"/>
<feOffset dy="4"/>
<feGaussianBlur stdDeviation="5"/>
<feComposite in2="hardAlpha" operator="arithmetic" k2="-1" k3="1"/>
<feColorMatrix type="matrix" values="0 0 0 0 0.298039 0 0 0 0 0.454902 0 0 0 0 1 0 0 0 0.25 0"/>
<feBlend mode="normal" in2="shape" result="effect3_innerShadow_77:15"/>
</filter>
<linearGradient id="paint0_linear_77:15" x1="84.6583" y1="6.40356" x2="123.966" y2="75.9339" gradientUnits="userSpaceOnUse">
<stop stop-color="#D4B2FF"/>
<stop offset="1" stop-color="#70A9FF"/>
</linearGradient>
<linearGradient id="paint1_linear_77:15" x1="33.5692" y1="36.5523" x2="83.1305" y2="124.221" gradientUnits="userSpaceOnUse">
<stop stop-color="#E4F9FF" stop-opacity="0.1"/>
<stop offset="1" stop-color="#E4F9FF" stop-opacity="0.8"/>
</linearGradient>
<linearGradient id="paint2_linear_77:15" x1="29.998" y1="27.8272" x2="85.9033" y2="126.207" gradientUnits="userSpaceOnUse">
<stop stop-color="#E4F9FF" stop-opacity="0.1"/>
<stop offset="1" stop-color="#E4F9FF" stop-opacity="0.8"/>
</linearGradient>
</defs>
</svg>
