<svg width="166" height="183" viewBox="0 0 166 183" fill="none" xmlns="http://www.w3.org/2000/svg">
<g filter="url(#filter0_di_77:16)">
<rect x="18" y="2" width="130" height="153" rx="15" fill="white"/>
</g>
<g filter="url(#filter1_d_77:16)">
<path d="M37 37H129" stroke="url(#paint0_linear_77:16)" stroke-width="4" stroke-linecap="round"/>
</g>
<g filter="url(#filter2_d_77:16)">
<path d="M37 56H129" stroke="url(#paint1_linear_77:16)" stroke-width="4" stroke-linecap="round"/>
</g>
<g filter="url(#filter3_d_77:16)">
<path d="M37 74H129" stroke="url(#paint2_linear_77:16)" stroke-width="4" stroke-linecap="round"/>
</g>
<g filter="url(#filter4_f_77:16)">
<path d="M23 74C23 71.2386 25.2386 69 28 69H45C47.7614 69 50 71.2386 50 74V83H23V74Z" fill="url(#paint3_linear_77:16)"/>
</g>
<g filter="url(#filter5_bd_77:16)">
<mask id="path-6-inside-1_77:16" fill="white">
<path fill-rule="evenodd" clip-rule="evenodd" d="M9 69.4824C6.23858 69.4824 4 71.7209 4 74.4824V83.4235V161.365C4 169.649 10.7157 176.365 19 176.365H147C155.284 176.365 162 169.649 162 161.365V98.4235C162 90.1393 155.284 83.4235 147 83.4235H31.8824V74.4824C31.8824 71.7209 29.6438 69.4824 26.8823 69.4824H9Z"/>
</mask>
<path fill-rule="evenodd" clip-rule="evenodd" d="M9 69.4824C6.23858 69.4824 4 71.7209 4 74.4824V83.4235V161.365C4 169.649 10.7157 176.365 19 176.365H147C155.284 176.365 162 169.649 162 161.365V98.4235C162 90.1393 155.284 83.4235 147 83.4235H31.8824V74.4824C31.8824 71.7209 29.6438 69.4824 26.8823 69.4824H9Z" fill="url(#paint4_linear_77:16)" shape-rendering="crispEdges"/>
<path d="M31.8824 83.4235H30.8824V84.4235H31.8824V83.4235ZM5 74.4824C5 72.2732 6.79086 70.4824 9 70.4824V68.4824C5.68629 68.4824 3 71.1687 3 74.4824H5ZM5 83.4235V74.4824H3V83.4235H5ZM5 161.365V83.4235H3V161.365H5ZM19 175.365C11.268 175.365 5 169.097 5 161.365H3C3 170.201 10.1634 177.365 19 177.365V175.365ZM147 175.365H19V177.365H147V175.365ZM161 161.365C161 169.097 154.732 175.365 147 175.365V177.365C155.837 177.365 163 170.201 163 161.365H161ZM161 98.4235V161.365H163V98.4235H161ZM147 84.4235C154.732 84.4235 161 90.6916 161 98.4235H163C163 89.587 155.837 82.4235 147 82.4235V84.4235ZM31.8824 84.4235H147V82.4235H31.8824V84.4235ZM30.8824 74.4824V83.4235H32.8824V74.4824H30.8824ZM26.8823 70.4824C29.0915 70.4824 30.8824 72.2732 30.8824 74.4824H32.8824C32.8824 71.1687 30.1961 68.4824 26.8823 68.4824V70.4824ZM9 70.4824H26.8823V68.4824H9V70.4824Z" fill="url(#paint5_linear_77:16)" mask="url(#path-6-inside-1_77:16)"/>
</g>
<defs>
<filter id="filter0_di_77:16" x="14" y="0" width="138" height="161" filterUnits="userSpaceOnUse" color-interpolation-filters="sRGB">
<feFlood flood-opacity="0" result="BackgroundImageFix"/>
<feColorMatrix in="SourceAlpha" type="matrix" values="0 0 0 0 0 0 0 0 0 0 0 0 0 0 0 0 0 0 127 0" result="hardAlpha"/>
<feOffset dy="2"/>
<feGaussianBlur stdDeviation="2"/>
<feComposite in2="hardAlpha" operator="out"/>
<feColorMatrix type="matrix" values="0 0 0 0 0.298039 0 0 0 0 0.454902 0 0 0 0 1 0 0 0 0.25 0"/>
<feBlend mode="normal" in2="BackgroundImageFix" result="effect1_dropShadow_77:16"/>
<feBlend mode="normal" in="SourceGraphic" in2="effect1_dropShadow_77:16" result="shape"/>
<feColorMatrix in="SourceAlpha" type="matrix" values="0 0 0 0 0 0 0 0 0 0 0 0 0 0 0 0 0 0 127 0" result="hardAlpha"/>
<feOffset dy="4"/>
<feGaussianBlur stdDeviation="5"/>
<feComposite in2="hardAlpha" operator="arithmetic" k2="-1" k3="1"/>
<feColorMatrix type="matrix" values="0 0 0 0 0.298039 0 0 0 0 0.454902 0 0 0 0 1 0 0 0 0.25 0"/>
<feBlend mode="normal" in2="shape" result="effect2_innerShadow_77:16"/>
</filter>
<filter id="filter1_d_77:16" x="31" y="33" width="104" height="12" filterUnits="userSpaceOnUse" color-interpolation-filters="sRGB">
<feFlood flood-opacity="0" result="BackgroundImageFix"/>
<feColorMatrix in="SourceAlpha" type="matrix" values="0 0 0 0 0 0 0 0 0 0 0 0 0 0 0 0 0 0 127 0" result="hardAlpha"/>
<feOffset dy="2"/>
<feGaussianBlur stdDeviation="2"/>
<feComposite in2="hardAlpha" operator="out"/>
<feColorMatrix type="matrix" values="0 0 0 0 0.298039 0 0 0 0 0.454902 0 0 0 0 1 0 0 0 0.25 0"/>
<feBlend mode="normal" in2="BackgroundImageFix" result="effect1_dropShadow_77:16"/>
<feBlend mode="normal" in="SourceGraphic" in2="effect1_dropShadow_77:16" result="shape"/>
</filter>
<filter id="filter2_d_77:16" x="31" y="52" width="104" height="12" filterUnits="userSpaceOnUse" color-interpolation-filters="sRGB">
<feFlood flood-opacity="0" result="BackgroundImageFix"/>
<feColorMatrix in="SourceAlpha" type="matrix" values="0 0 0 0 0 0 0 0 0 0 0 0 0 0 0 0 0 0 127 0" result="hardAlpha"/>
<feOffset dy="2"/>
<feGaussianBlur stdDeviation="2"/>
<feComposite in2="hardAlpha" operator="out"/>
<feColorMatrix type="matrix" values="0 0 0 0 0.298039 0 0 0 0 0.454902 0 0 0 0 1 0 0 0 0.25 0"/>
<feBlend mode="normal" in2="BackgroundImageFix" result="effect1_dropShadow_77:16"/>
<feBlend mode="normal" in="SourceGraphic" in2="effect1_dropShadow_77:16" result="shape"/>
</filter>
<filter id="filter3_d_77:16" x="31" y="70" width="104" height="12" filterUnits="userSpaceOnUse" color-interpolation-filters="sRGB">
<feFlood flood-opacity="0" result="BackgroundImageFix"/>
<feColorMatrix in="SourceAlpha" type="matrix" values="0 0 0 0 0 0 0 0 0 0 0 0 0 0 0 0 0 0 127 0" result="hardAlpha"/>
<feOffset dy="2"/>
<feGaussianBlur stdDeviation="2"/>
<feComposite in2="hardAlpha" operator="out"/>
<feColorMatrix type="matrix" values="0 0 0 0 0.298039 0 0 0 0 0.454902 0 0 0 0 1 0 0 0 0.25 0"/>
<feBlend mode="normal" in2="BackgroundImageFix" result="effect1_dropShadow_77:16"/>
<feBlend mode="normal" in="SourceGraphic" in2="effect1_dropShadow_77:16" result="shape"/>
</filter>
<filter id="filter4_f_77:16" x="22" y="68" width="29" height="16" filterUnits="userSpaceOnUse" color-interpolation-filters="sRGB">
<feFlood flood-opacity="0" result="BackgroundImageFix"/>
<feBlend mode="normal" in="SourceGraphic" in2="BackgroundImageFix" result="shape"/>
<feGaussianBlur stdDeviation="0.5" result="effect1_foregroundBlur_77:16"/>
</filter>
<filter id="filter5_bd_77:16" x="-4" y="61.4824" width="174" height="122.882" filterUnits="userSpaceOnUse" color-interpolation-filters="sRGB">
<feFlood flood-opacity="0" result="BackgroundImageFix"/>
<feGaussianBlur in="BackgroundImage" stdDeviation="4"/>
<feComposite in2="SourceAlpha" operator="in" result="effect1_backgroundBlur_77:16"/>
<feColorMatrix in="SourceAlpha" type="matrix" values="0 0 0 0 0 0 0 0 0 0 0 0 0 0 0 0 0 0 127 0" result="hardAlpha"/>
<feOffset dy="2"/>
<feGaussianBlur stdDeviation="2"/>
<feComposite in2="hardAlpha" operator="out"/>
<feColorMatrix type="matrix" values="0 0 0 0 0.298039 0 0 0 0 0.454902 0 0 0 0 1 0 0 0 0.25 0"/>
<feBlend mode="normal" in2="effect1_backgroundBlur_77:16" result="effect2_dropShadow_77:16"/>
<feBlend mode="normal" in="SourceGraphic" in2="effect2_dropShadow_77:16" result="shape"/>
</filter>
<linearGradient id="paint0_linear_77:16" x1="69.2" y1="37" x2="93.58" y2="37" gradientUnits="userSpaceOnUse">
<stop stop-color="#70A9FF"/>
<stop offset="1" stop-color="#4C74FF"/>
</linearGradient>
<linearGradient id="paint1_linear_77:16" x1="72.42" y1="56" x2="98.18" y2="56.0001" gradientUnits="userSpaceOnUse">
<stop stop-color="#70A9FF"/>
<stop offset="1" stop-color="#4C74FF"/>
</linearGradient>
<linearGradient id="paint2_linear_77:16" x1="72.42" y1="74" x2="98.18" y2="74.0001" gradientUnits="userSpaceOnUse">
<stop stop-color="#70A9FF"/>
<stop offset="1" stop-color="#4C74FF"/>
</linearGradient>
<linearGradient id="paint3_linear_77:16" x1="24.8" y1="69.4667" x2="50.3795" y2="82.2401" gradientUnits="userSpaceOnUse">
<stop stop-color="#FF62C0"/>
<stop offset="0.484375" stop-color="#BE35FF"/>
<stop offset="1" stop-color="#7926FF"/>
</linearGradient>
<linearGradient id="paint4_linear_77:16" x1="14.2235" y1="76.9177" x2="147.129" y2="168.465" gradientUnits="userSpaceOnUse">
<stop stop-color="#D4B2FF" stop-opacity="0.1"/>
<stop offset="1" stop-color="#70A9FF" stop-opacity="0.8"/>
</linearGradient>
<linearGradient id="paint5_linear_77:16" x1="88.5765" y1="77.3824" x2="190.347" y2="221.906" gradientUnits="userSpaceOnUse">
<stop stop-color="#4C74FF" stop-opacity="0.1"/>
<stop offset="1" stop-color="#4C74FF" stop-opacity="0.8"/>
</linearGradient>
</defs>
</svg>
