<svg width="234" height="155" viewBox="0 0 234 155" fill="none" xmlns="http://www.w3.org/2000/svg">
<g filter="url(#filter0_df_77:3)">
<circle cx="163" cy="69" r="42" fill="url(#paint0_linear_77:3)"/>
</g>
<g filter="url(#filter1_bdi_77:3)">
<path d="M195.909 114.385C194.377 97.5654 177.961 85.1145 159.137 86.862C158.918 86.862 158.699 86.862 158.48 86.862H158.261C157.823 82.2748 156.729 76.377 153.664 70.0423C143.158 48.6355 115.14 34.874 89.3119 40.1165C86.9042 40.5533 63.0456 46.0143 51.6636 66.7658C49.2558 71.1345 47.9425 75.2848 47.2859 78.3429C41.5948 78.3429 35.9038 78.1245 30.4317 79.4351C18.3929 82.7117 8.54307 91.4491 5.25978 103.463C2.19538 114.385 4.82201 126.617 12.0452 135.573C13.1397 137.102 14.453 138.413 15.9852 139.505C22.9895 145.403 31.745 147.587 40.7193 147.806C51.2258 148.243 61.9512 147.806 72.4577 147.806C92.1575 147.806 111.857 147.806 131.776 147.806C139.656 147.806 147.536 147.806 155.415 147.806C162.201 147.806 168.549 148.024 174.896 145.403C184.965 141.471 193.502 132.952 195.69 122.03C195.909 119.846 196.128 117.225 195.909 114.385Z" fill="url(#paint1_linear_77:3)" shape-rendering="crispEdges"/>
<path d="M159.137 87.362H159.16L159.183 87.3598C177.778 85.6336 193.906 97.9295 195.411 114.427C195.625 117.208 195.413 119.783 195.195 121.956C193.039 132.667 184.651 141.057 174.714 144.937L174.705 144.941C168.909 147.334 163.114 147.322 156.852 147.308C156.376 147.307 155.897 147.306 155.415 147.306H155.369H155.323H155.277H155.231H155.185H155.138H155.092H155.046H155H154.954H154.908H154.861H154.815H154.769H154.723H154.677H154.631H154.584H154.538H154.492H154.446H154.4H154.354H154.307H154.261H154.215H154.169H154.123H154.076H154.03H153.984H153.938H153.892H153.846H153.799H153.753H153.707H153.661H153.615H153.569H153.522H153.476H153.43H153.384H153.338H153.292H153.245H153.199H153.153H153.107H153.061H153.015H152.968H152.922H152.876H152.83H152.784H152.738H152.691H152.645H152.599H152.553H152.507H152.461H152.414H152.368H152.322H152.276H152.23H152.183H152.137H152.091H152.045H151.999H151.953H151.906H151.86H151.814H151.768H151.722H151.676H151.629H151.583H151.537H151.491H151.445H151.399H151.352H151.306H151.26H151.214H151.168H151.122H151.075H151.029H150.983H150.937H150.891H150.845H150.798H150.752H150.706H150.66H150.614H150.567H150.521H150.475H150.429H150.383H150.337H150.29H150.244H150.198H150.152H150.106H150.06H150.013H149.967H149.921H149.875H149.829H149.783H149.736H149.69H149.644H149.598H149.552H149.506H149.459H149.413H149.367H149.321H149.275H149.229H149.182H149.136H149.09H149.044H148.998H148.951H148.905H148.859H148.813H148.767H148.721H148.674H148.628H148.582H148.536H148.49H148.444H148.397H148.351H148.305H148.259H148.213H148.167H148.12H148.074H148.028H147.982H147.936H147.89H147.843H147.797H147.751H147.705H147.659H147.613H147.566H147.52H147.474H147.428H147.382H147.335H147.289H147.243H147.197H147.151H147.105H147.058H147.012H146.966H146.92H146.874H146.828H146.781H146.735H146.689H146.643H146.597H146.551H146.504H146.458H146.412H146.366H146.32H146.274H146.227H146.181H146.135H146.089H146.043H145.997H145.95H145.904H145.858H145.812H145.766H145.72H145.673H145.627H145.581H145.535H145.489H145.442H145.396H145.35H145.304H145.258H145.212H145.165H145.119H145.073H145.027H144.981H144.935H144.888H144.842H144.796H144.75H144.704H144.658H144.611H144.565H144.519H144.473H144.427H144.381H144.334H144.288H144.242H144.196H144.15H144.104H144.057H144.011H143.965H143.919H143.873H143.826H143.78H143.734H143.688H143.642H143.596H143.549H143.503H143.457H143.411H143.365H143.319H143.272H143.226H143.18H143.134H143.088H143.042H142.995H142.949H142.903H142.857H142.811H142.765H142.718H142.672H142.626H142.58H142.534H142.488H142.441H142.395H142.349H142.303H142.257H142.21H142.164H142.118H142.072H142.026H141.98H141.933H141.887H141.841H141.795H141.749H141.703H141.656H141.61H141.564H141.518H141.472H141.426H141.379H141.333H141.287H141.241H141.195H141.149H141.102H141.056H141.01H140.964H140.918H140.872H140.825H140.779H140.733H140.687H140.641H140.594H140.548H140.502H140.456H140.41H140.364H140.317H140.271H140.225H140.179H140.133H140.087H140.04H139.994H139.948H139.902H139.856H139.81H139.763H139.717H139.671H139.625H139.579H139.533H139.486H139.44H139.394H139.348H139.302H139.256H139.209H139.163H139.117H139.071H139.025H138.979H138.932H138.886H138.84H138.794H138.748H138.701H138.655H138.609H138.563H138.517H138.471H138.424H138.378H138.332H138.286H138.24H138.194H138.147H138.101H138.055H138.009H137.963H137.917H137.87H137.824H137.778H137.732H137.686H137.64H137.593H137.547H137.501H137.455H137.409H137.363H137.316H137.27H137.224H137.178H137.132H137.085H137.039H136.993H136.947H136.901H136.855H136.808H136.762H136.716H136.67H136.624H136.578H136.531H136.485H136.439H136.393H136.347H136.301H136.254H136.208H136.162H136.116H136.07H136.024H135.977H135.931H135.885H135.839H135.793H135.747H135.7H135.654H135.608H135.562H135.516H135.469H135.423H135.377H135.331H135.285H135.239H135.192H135.146H135.1H135.054H135.008H134.962H134.915H134.869H134.823H134.777H134.731H134.685H134.638H134.592H134.546H134.5H134.454H134.408H134.361H134.315H134.269H134.223H134.177H134.131H134.084H134.038H133.992H133.946H133.9H133.854H133.807H133.761H133.715H133.669H133.623H133.576H133.53H133.484H133.438H133.392H133.346H133.299H133.253H133.207H133.161H133.115H133.069H133.022H132.976H132.93H132.884H132.838H132.792H132.745H132.699H132.653H132.607H132.561H132.515H132.468H132.422H132.376H132.33H132.284H132.238H132.191H132.145H132.099H132.053H132.007H131.96H131.914H131.868H131.822H131.776H131.659H131.542H131.426H131.309H131.192H131.076H130.959H130.842H130.726H130.609H130.492H130.376H130.259H130.142H130.026H129.909H129.792H129.676H129.559H129.443H129.326H129.209H129.093H128.976H128.86H128.743H128.626H128.51H128.393H128.277H128.16H128.044H127.927H127.81H127.694H127.577H127.461H127.344H127.228H127.111H126.995H126.878H126.762H126.645H126.529H126.412H126.296H126.179H126.063H125.946H125.83H125.713H125.597H125.48H125.364H125.248H125.131H125.015H124.898H124.782H124.665H124.549H124.433H124.316H124.2H124.083H123.967H123.851H123.734H123.618H123.501H123.385H123.269H123.152H123.036H122.92H122.803H122.687H122.57H122.454H122.338H122.221H122.105H121.989H121.872H121.756H121.64H121.524H121.407H121.291H121.175H121.058H120.942H120.826H120.71H120.593H120.477H120.361H120.244H120.128H120.012H119.896H119.779H119.663H119.547H119.431H119.314H119.198H119.082H118.966H118.85H118.733H118.617H118.501H118.385H118.269H118.152H118.036H117.92H117.804H117.688H117.571H117.455H117.339H117.223H117.107H116.991H116.874H116.758H116.642H116.526H116.41H116.294H116.178H116.062H115.945H115.829H115.713H115.597H115.481H115.365H115.249H115.133H115.017H114.9H114.784H114.668H114.552H114.436H114.32H114.204H114.088H113.972H113.856H113.74H113.624H113.508H113.392H113.276H113.16H113.044H112.927H112.811H112.695H112.579H112.463H112.347H112.231H112.115H111.999H111.883H111.767H111.651H111.535H111.419H111.303H111.187H111.071H110.956H110.84H110.724H110.608H110.492H110.376H110.26H110.144H110.028H109.912H109.796H109.68H109.564H109.448H109.332H109.216H109.1H108.984H108.869H108.753H108.637H108.521H108.405H108.289H108.173H108.057H107.941H107.825H107.71H107.594H107.478H107.362H107.246H107.13H107.014H106.898H106.783H106.667H106.551H106.435H106.319H106.203H106.087H105.972H105.856H105.74H105.624H105.508H105.392H105.277H105.161H105.045H104.929H104.813H104.698H104.582H104.466H104.35H104.234H104.119H104.003H103.887H103.771H103.655H103.54H103.424H103.308H103.192H103.077H102.961H102.845H102.729H102.613H102.498H102.382H102.266H102.15H102.035H101.919H101.803H101.687H101.572H101.456H101.34H101.225H101.109H100.993H100.877H100.762H100.646H100.53H100.414H100.299H100.183H100.067H99.9516H99.8359H99.7202H99.6045H99.4888H99.3731H99.2574H99.1417H99.026H98.9104H98.7947H98.679H98.5633H98.4476H98.332H98.2163H98.1006H97.9849H97.8693H97.7536H97.638H97.5223H97.4066H97.291H97.1753H97.0597H96.944H96.8284H96.7127H96.5971H96.4815H96.3658H96.2502H96.1345H96.0189H95.9033H95.7877H95.672H95.5564H95.4408H95.3252H95.2095H95.0939H94.9783H94.8627H94.7471H94.6315H94.5159H94.4003H94.2847H94.1691H94.0535H93.9379H93.8223H93.7067H93.5911H93.4755H93.3599H93.2443H93.1287H93.0131H92.8976H92.782H92.6664H92.5508H92.4352H92.3197H92.2041H92.0885H91.973H91.8574H91.7418H91.6263H91.5107H91.3951H91.2796H91.164H91.0485H90.9329H90.8174H90.7018H90.5863H90.4707H90.3552H90.2396H90.1241H90.0085H89.893H89.7775H89.6619H89.5464H89.4308H89.3153H89.1998H89.0843H88.9687H88.8532H88.7377H88.6221H88.5066H88.3911H88.2756H88.1601H88.0445H87.929H87.8135H87.698H87.5825H87.467H87.3515H87.2359H87.1204H87.0049H86.8894H86.7739H86.6584H86.5429H86.4274H86.3119H86.1964H86.0809H85.9654H85.8499H85.7344H85.6189H85.5035H85.388H85.2725H85.157H85.0415H84.926H84.8105H84.6951H84.5796H84.4641H84.3486H84.2331H84.1177H84.0022H83.8867H83.7712H83.6557H83.5403H83.4248H83.3093H83.1939H83.0784H82.9629H82.8475H82.732H82.6165H82.5011H82.3856H82.2701H82.1547H82.0392H81.9237H81.8083H81.6928H81.5774H81.4619H81.3464H81.231H81.1155H81.0001H80.8846H80.7692H80.6537H80.5383H80.4228H80.3074H80.1919H80.0765H79.961H79.8456H79.7301H79.6147H79.4992H79.3838H79.2683H79.1529H79.0374H78.922H78.8065H78.6911H78.5757H78.4602H78.3448H78.2293H78.1139H77.9985H77.883H77.7676H77.6521H77.5367H77.4213H77.3058H77.1904H77.075H76.9595H76.8441H76.7287H76.6132H76.4978H76.3824H76.2669H76.1515H76.0361H75.9206H75.8052H75.6898H75.5743H75.4589H75.3435H75.228H75.1126H74.9972H74.8817H74.7663H74.6509H74.5354H74.42H74.3046H74.1892H74.0737H73.9583H73.8429H73.7274H73.612H73.4966H73.3812H73.2657H73.1503H73.0349H72.9194H72.804H72.6886H72.5732H72.4577C68.9487 147.306 65.4229 147.354 61.893 147.403C54.8243 147.5 47.7392 147.597 40.7401 147.306L40.7401 147.306L40.7315 147.306C31.8259 147.089 23.1956 144.923 16.3072 139.123L16.2918 139.11L16.2754 139.098C14.7881 138.038 13.5141 136.767 12.4518 135.282L12.4435 135.271L12.4344 135.259C5.30965 126.426 2.72181 114.36 5.7412 103.598L5.74209 103.595C8.97161 91.7777 18.6661 83.158 30.5556 79.9196C35.2779 78.7898 40.1653 78.8128 45.1447 78.8362C45.8566 78.8396 46.5704 78.8429 47.2859 78.8429H47.6899L47.7747 78.4479C48.4227 75.4304 49.7206 71.3272 52.1015 67.0071L52.102 67.0062C57.7303 56.7448 66.4506 50.2517 74.0845 46.2664C81.7196 42.2804 88.2364 40.8198 89.4012 40.6084L89.4012 40.6085L89.4114 40.6065C115.029 35.4068 142.813 49.0708 153.215 70.261C156.245 76.5264 157.329 82.3618 157.763 86.9095L157.806 87.362H158.261H158.48H158.481H158.482H158.484H158.485H158.486H158.488H158.489H158.49H158.491H158.493H158.494H158.495H158.497H158.498H158.499H158.5H158.502H158.503H158.504H158.506H158.507H158.508H158.509H158.511H158.512H158.513H158.514H158.516H158.517H158.518H158.52H158.521H158.522H158.523H158.525H158.526H158.527H158.529H158.53H158.531H158.532H158.534H158.535H158.536H158.538H158.539H158.54H158.541H158.543H158.544H158.545H158.547H158.548H158.549H158.55H158.552H158.553H158.554H158.556H158.557H158.558H158.559H158.561H158.562H158.563H158.565H158.566H158.567H158.568H158.57H158.571H158.572H158.573H158.575H158.576H158.577H158.579H158.58H158.581H158.582H158.584H158.585H158.586H158.588H158.589H158.59H158.591H158.593H158.594H158.595H158.597H158.598H158.599H158.6H158.602H158.603H158.604H158.606H158.607H158.608H158.609H158.611H158.612H158.613H158.615H158.616H158.617H158.618H158.62H158.621H158.622H158.624H158.625H158.626H158.627H158.629H158.63H158.631H158.632H158.634H158.635H158.636H158.638H158.639H158.64H158.641H158.643H158.644H158.645H158.647H158.648H158.649H158.65H158.652H158.653H158.654H158.656H158.657H158.658H158.659H158.661H158.662H158.663H158.665H158.666H158.667H158.668H158.67H158.671H158.672H158.674H158.675H158.676H158.677H158.679H158.68H158.681H158.683H158.684H158.685H158.686H158.688H158.689H158.69H158.691H158.693H158.694H158.695H158.697H158.698H158.699H158.7H158.702H158.703H158.704H158.706H158.707H158.708H158.709H158.711H158.712H158.713H158.715H158.716H158.717H158.718H158.72H158.721H158.722H158.724H158.725H158.726H158.727H158.729H158.73H158.731H158.733H158.734H158.735H158.736H158.738H158.739H158.74H158.742H158.743H158.744H158.745H158.747H158.748H158.749H158.75H158.752H158.753H158.754H158.756H158.757H158.758H158.759H158.761H158.762H158.763H158.765H158.766H158.767H158.768H158.77H158.771H158.772H158.774H158.775H158.776H158.777H158.779H158.78H158.781H158.783H158.784H158.785H158.786H158.788H158.789H158.79H158.792H158.793H158.794H158.795H158.797H158.798H158.799H158.801H158.802H158.803H158.804H158.806H158.807H158.808H158.809H158.811H158.812H158.813H158.815H158.816H158.817H158.818H158.82H158.821H158.822H158.824H158.825H158.826H158.827H158.829H158.83H158.831H158.833H158.834H158.835H158.836H158.838H158.839H158.84H158.842H158.843H158.844H158.845H158.847H158.848H158.849H158.851H158.852H158.853H158.854H158.856H158.857H158.858H158.859H158.861H158.862H158.863H158.865H158.866H158.867H158.868H158.87H158.871H158.872H158.874H158.875H158.876H158.877H158.879H158.88H158.881H158.883H158.884H158.885H158.886H158.888H158.889H158.89H158.892H158.893H158.894H158.895H158.897H158.898H158.899H158.901H158.902H158.903H158.904H158.906H158.907H158.908H158.91H158.911H158.912H158.913H158.915H158.916H158.917H158.919H158.92H158.921H158.922H158.924H158.925H158.926H158.927H158.929H158.93H158.931H158.933H158.934H158.935H158.936H158.938H158.939H158.94H158.942H158.943H158.944H158.945H158.947H158.948H158.949H158.951H158.952H158.953H158.954H158.956H158.957H158.958H158.96H158.961H158.962H158.963H158.965H158.966H158.967H158.969H158.97H158.971H158.972H158.974H158.975H158.976H158.977H158.979H158.98H158.981H158.983H158.984H158.985H158.986H158.988H158.989H158.99H158.992H158.993H158.994H158.995H158.997H158.998H158.999H159.001H159.002H159.003H159.004H159.006H159.007H159.008H159.01H159.011H159.012H159.013H159.015H159.016H159.017H159.019H159.02H159.021H159.022H159.024H159.025H159.026H159.028H159.029H159.03H159.031H159.033H159.034H159.035H159.036H159.038H159.039H159.04H159.042H159.043H159.044H159.045H159.047H159.048H159.049H159.051H159.052H159.053H159.054H159.056H159.057H159.058H159.06H159.061H159.062H159.063H159.065H159.066H159.067H159.069H159.07H159.071H159.072H159.074H159.075H159.076H159.078H159.079H159.08H159.081H159.083H159.084H159.085H159.087H159.088H159.089H159.09H159.092H159.093H159.094H159.095H159.097H159.098H159.099H159.101H159.102H159.103H159.104H159.106H159.107H159.108H159.11H159.111H159.112H159.113H159.115H159.116H159.117H159.119H159.12H159.121H159.122H159.124H159.125H159.126H159.128H159.129H159.13H159.131H159.133H159.134H159.135H159.137Z" stroke="url(#paint2_linear_77:3)" shape-rendering="crispEdges"/>
</g>
<g filter="url(#filter2_df_77:3)">
<rect x="162" y="2" width="9" height="18" rx="4.5" fill="url(#paint3_linear_77:3)"/>
</g>
<g filter="url(#filter3_df_77:3)">
<rect x="115.544" y="18.4059" width="8.96241" height="17.9248" rx="4.4812" transform="rotate(-42.3182 115.544 18.4059)" fill="url(#paint4_linear_77:3)"/>
</g>
<g filter="url(#filter4_df_77:3)">
<rect x="207.646" y="14.5821" width="8.96241" height="17.9248" rx="4.4812" transform="rotate(40.3214 207.646 14.5821)" fill="url(#paint5_linear_77:3)"/>
</g>
<g filter="url(#filter5_df_77:3)">
<rect x="230.393" y="51.2894" width="8.96241" height="17.9248" rx="4.4812" transform="rotate(86.6612 230.393 51.2894)" fill="url(#paint6_linear_77:3)"/>
</g>
<g filter="url(#filter6_df_77:3)">
<rect x="227.246" y="95.497" width="8.96241" height="17.9248" rx="4.4812" transform="rotate(116.574 227.246 95.497)" fill="url(#paint7_linear_77:3)"/>
</g>
<defs>
<filter id="filter0_df_77:3" x="118" y="25" width="92" height="92" filterUnits="userSpaceOnUse" color-interpolation-filters="sRGB">
<feFlood flood-opacity="0" result="BackgroundImageFix"/>
<feColorMatrix in="SourceAlpha" type="matrix" values="0 0 0 0 0 0 0 0 0 0 0 0 0 0 0 0 0 0 127 0" result="hardAlpha"/>
<feOffset dx="1" dy="2"/>
<feGaussianBlur stdDeviation="2"/>
<feComposite in2="hardAlpha" operator="out"/>
<feColorMatrix type="matrix" values="0 0 0 0 1 0 0 0 0 0.239216 0 0 0 0 0 0 0 0 0.25 0"/>
<feBlend mode="normal" in2="BackgroundImageFix" result="effect1_dropShadow_77:3"/>
<feBlend mode="normal" in="SourceGraphic" in2="effect1_dropShadow_77:3" result="shape"/>
<feGaussianBlur stdDeviation="0.5" result="effect2_foregroundBlur_77:3"/>
</filter>
<filter id="filter1_bdi_77:3" x="-4" y="31" width="208" height="125" filterUnits="userSpaceOnUse" color-interpolation-filters="sRGB">
<feFlood flood-opacity="0" result="BackgroundImageFix"/>
<feGaussianBlur in="BackgroundImage" stdDeviation="4"/>
<feComposite in2="SourceAlpha" operator="in" result="effect1_backgroundBlur_77:3"/>
<feColorMatrix in="SourceAlpha" type="matrix" values="0 0 0 0 0 0 0 0 0 0 0 0 0 0 0 0 0 0 127 0" result="hardAlpha"/>
<feOffset dy="3"/>
<feGaussianBlur stdDeviation="2"/>
<feComposite in2="hardAlpha" operator="out"/>
<feColorMatrix type="matrix" values="0 0 0 0 0.298039 0 0 0 0 0.454902 0 0 0 0 1 0 0 0 0.2 0"/>
<feBlend mode="normal" in2="effect1_backgroundBlur_77:3" result="effect2_dropShadow_77:3"/>
<feBlend mode="normal" in="SourceGraphic" in2="effect2_dropShadow_77:3" result="shape"/>
<feColorMatrix in="SourceAlpha" type="matrix" values="0 0 0 0 0 0 0 0 0 0 0 0 0 0 0 0 0 0 127 0" result="hardAlpha"/>
<feOffset dy="2"/>
<feGaussianBlur stdDeviation="2.5"/>
<feComposite in2="hardAlpha" operator="arithmetic" k2="-1" k3="1"/>
<feColorMatrix type="matrix" values="0 0 0 0 1 0 0 0 0 1 0 0 0 0 1 0 0 0 0.25 0"/>
<feBlend mode="normal" in2="shape" result="effect3_innerShadow_77:3"/>
</filter>
<filter id="filter2_df_77:3" x="159" y="0" width="15" height="24" filterUnits="userSpaceOnUse" color-interpolation-filters="sRGB">
<feFlood flood-opacity="0" result="BackgroundImageFix"/>
<feColorMatrix in="SourceAlpha" type="matrix" values="0 0 0 0 0 0 0 0 0 0 0 0 0 0 0 0 0 0 127 0" result="hardAlpha"/>
<feOffset dy="1"/>
<feGaussianBlur stdDeviation="1.5"/>
<feComposite in2="hardAlpha" operator="out"/>
<feColorMatrix type="matrix" values="0 0 0 0 1 0 0 0 0 0.239216 0 0 0 0 0 0 0 0 0.25 0"/>
<feBlend mode="normal" in2="BackgroundImageFix" result="effect1_dropShadow_77:3"/>
<feBlend mode="normal" in="SourceGraphic" in2="effect1_dropShadow_77:3" result="shape"/>
<feGaussianBlur stdDeviation="0.5" result="effect2_foregroundBlur_77:3"/>
</filter>
<filter id="filter3_df_77:3" x="112.544" y="10.372" width="24.6948" height="25.2878" filterUnits="userSpaceOnUse" color-interpolation-filters="sRGB">
<feFlood flood-opacity="0" result="BackgroundImageFix"/>
<feColorMatrix in="SourceAlpha" type="matrix" values="0 0 0 0 0 0 0 0 0 0 0 0 0 0 0 0 0 0 127 0" result="hardAlpha"/>
<feOffset dy="1"/>
<feGaussianBlur stdDeviation="1.5"/>
<feComposite in2="hardAlpha" operator="out"/>
<feColorMatrix type="matrix" values="0 0 0 0 1 0 0 0 0 0.239216 0 0 0 0 0 0 0 0 0.25 0"/>
<feBlend mode="normal" in2="BackgroundImageFix" result="effect1_dropShadow_77:3"/>
<feBlend mode="normal" in="SourceGraphic" in2="effect1_dropShadow_77:3" result="shape"/>
<feGaussianBlur stdDeviation="0.5" result="effect2_foregroundBlur_77:3"/>
</filter>
<filter id="filter4_df_77:3" x="193.048" y="12.5821" width="24.4319" height="25.4657" filterUnits="userSpaceOnUse" color-interpolation-filters="sRGB">
<feFlood flood-opacity="0" result="BackgroundImageFix"/>
<feColorMatrix in="SourceAlpha" type="matrix" values="0 0 0 0 0 0 0 0 0 0 0 0 0 0 0 0 0 0 127 0" result="hardAlpha"/>
<feOffset dy="1"/>
<feGaussianBlur stdDeviation="1.5"/>
<feComposite in2="hardAlpha" operator="out"/>
<feColorMatrix type="matrix" values="0 0 0 0 1 0 0 0 0 0.239216 0 0 0 0 0 0 0 0 0.25 0"/>
<feBlend mode="normal" in2="BackgroundImageFix" result="effect1_dropShadow_77:3"/>
<feBlend mode="normal" in="SourceGraphic" in2="effect1_dropShadow_77:3" result="shape"/>
<feGaussianBlur stdDeviation="0.5" result="effect2_foregroundBlur_77:3"/>
</filter>
<filter id="filter5_df_77:3" x="209.498" y="49.2894" width="24.4164" height="15.9911" filterUnits="userSpaceOnUse" color-interpolation-filters="sRGB">
<feFlood flood-opacity="0" result="BackgroundImageFix"/>
<feColorMatrix in="SourceAlpha" type="matrix" values="0 0 0 0 0 0 0 0 0 0 0 0 0 0 0 0 0 0 127 0" result="hardAlpha"/>
<feOffset dy="1"/>
<feGaussianBlur stdDeviation="1.5"/>
<feComposite in2="hardAlpha" operator="out"/>
<feColorMatrix type="matrix" values="0 0 0 0 1 0 0 0 0 0.239216 0 0 0 0 0 0 0 0 0.25 0"/>
<feBlend mode="normal" in2="BackgroundImageFix" result="effect1_dropShadow_77:3"/>
<feBlend mode="normal" in="SourceGraphic" in2="effect1_dropShadow_77:3" result="shape"/>
<feGaussianBlur stdDeviation="0.5" result="effect2_foregroundBlur_77:3"/>
</filter>
<filter id="filter6_df_77:3" x="204.205" y="85.4784" width="26.0406" height="22.0342" filterUnits="userSpaceOnUse" color-interpolation-filters="sRGB">
<feFlood flood-opacity="0" result="BackgroundImageFix"/>
<feColorMatrix in="SourceAlpha" type="matrix" values="0 0 0 0 0 0 0 0 0 0 0 0 0 0 0 0 0 0 127 0" result="hardAlpha"/>
<feOffset dy="1"/>
<feGaussianBlur stdDeviation="1.5"/>
<feComposite in2="hardAlpha" operator="out"/>
<feColorMatrix type="matrix" values="0 0 0 0 1 0 0 0 0 0.239216 0 0 0 0 0 0 0 0 0.25 0"/>
<feBlend mode="normal" in2="BackgroundImageFix" result="effect1_dropShadow_77:3"/>
<feBlend mode="normal" in="SourceGraphic" in2="effect1_dropShadow_77:3" result="shape"/>
<feGaussianBlur stdDeviation="0.5" result="effect2_foregroundBlur_77:3"/>
</filter>
<linearGradient id="paint0_linear_77:3" x1="135.875" y1="29.1875" x2="197.125" y2="114.062" gradientUnits="userSpaceOnUse">
<stop stop-color="#FFE092"/>
<stop offset="0.354167" stop-color="#FF9820"/>
<stop offset="1" stop-color="#FF3D00"/>
</linearGradient>
<linearGradient id="paint1_linear_77:3" x1="146.674" y1="168.107" x2="67.961" y2="64.1599" gradientUnits="userSpaceOnUse">
<stop stop-color="#E4F9FF" stop-opacity="0.8"/>
<stop offset="1" stop-color="#E4F9FF" stop-opacity="0.1"/>
</linearGradient>
<linearGradient id="paint2_linear_77:3" x1="137.657" y1="67.0437" x2="105.443" y2="167.093" gradientUnits="userSpaceOnUse">
<stop stop-color="#EBFAFF" stop-opacity="0.1"/>
<stop offset="1" stop-color="#70A9FF" stop-opacity="0.5"/>
</linearGradient>
<linearGradient id="paint3_linear_77:3" x1="166.5" y1="2" x2="166.5" y2="20" gradientUnits="userSpaceOnUse">
<stop stop-color="#FFBD59"/>
<stop offset="0.463542" stop-color="#FF891B"/>
<stop offset="1" stop-color="#FF5E0C"/>
</linearGradient>
<linearGradient id="paint4_linear_77:3" x1="120.025" y1="18.4059" x2="120.025" y2="36.3307" gradientUnits="userSpaceOnUse">
<stop stop-color="#FFBD59"/>
<stop offset="0.463542" stop-color="#FF891B"/>
<stop offset="1" stop-color="#FF5E0C"/>
</linearGradient>
<linearGradient id="paint5_linear_77:3" x1="212.128" y1="14.5821" x2="212.128" y2="32.5069" gradientUnits="userSpaceOnUse">
<stop stop-color="#FFBD59"/>
<stop offset="0.463542" stop-color="#FF891B"/>
<stop offset="1" stop-color="#FF5E0C"/>
</linearGradient>
<linearGradient id="paint6_linear_77:3" x1="234.874" y1="51.2894" x2="234.874" y2="69.2143" gradientUnits="userSpaceOnUse">
<stop stop-color="#FFBD59"/>
<stop offset="0.463542" stop-color="#FF891B"/>
<stop offset="1" stop-color="#FF5E0C"/>
</linearGradient>
<linearGradient id="paint7_linear_77:3" x1="231.727" y1="95.497" x2="231.727" y2="113.422" gradientUnits="userSpaceOnUse">
<stop stop-color="#FFBD59"/>
<stop offset="0.463542" stop-color="#FF891B"/>
<stop offset="1" stop-color="#FF5E0C"/>
</linearGradient>
</defs>
</svg>
