<svg width="173" height="149" viewBox="0 0 173 149" fill="none" xmlns="http://www.w3.org/2000/svg">
<g filter="url(#filter0_df_77:6)">
<path d="M44.1251 67.399L54.0848 60.9291C54.8235 60.4453 55.725 61.016 55.6077 61.8845L54.225 73.7148C54.1715 74.2776 54.584 74.7463 55.0857 74.7872L66.9032 76.231C67.7106 76.3356 68.0695 77.3671 67.4403 77.9375L58.8989 86.1702C58.504 86.5343 58.4988 87.1711 58.863 87.5659L66.9962 96.278C67.5666 96.9072 67.1666 97.908 66.3337 97.9257L54.4496 98.6366C53.9351 98.6569 53.4536 99.1305 53.5223 99.7189L54.1593 111.651C54.177 112.484 53.2421 112.991 52.5724 112.532L42.9565 105.425C42.5185 105.078 41.9174 105.208 41.5709 105.646L34.3536 115.175C33.8339 115.832 32.7948 115.616 32.581 114.806L29.8351 103.199C29.6925 102.659 29.1807 102.361 28.6534 102.442L16.9981 105.114C16.1882 105.328 15.4854 104.416 15.8956 103.672L21.2487 92.9889C21.4729 92.5254 21.282 91.9115 20.8313 91.6262L10.2218 86.2247C9.47812 85.8145 9.51144 84.7371 10.273 84.4494L21.2105 79.7142C21.7021 79.4978 21.9518 78.9121 21.7354 78.4205L17.0129 67.4219C16.6641 66.6475 17.4054 65.8454 18.1873 66.0722L29.5969 69.472C30.1343 69.6478 30.6514 69.3092 30.8145 68.8329L34.2754 57.436C34.5022 56.6542 35.6178 56.5041 36.0532 57.169L42.7192 67.1058C42.9967 67.6102 43.608 67.7376 44.1251 67.399Z" fill="url(#paint0_linear_77:6)"/>
</g>
<g filter="url(#filter1_bdi_77:6)">
<path fill-rule="evenodd" clip-rule="evenodd" d="M104.769 73.5699C114.737 52.9842 109.471 27.53 90.787 12.7551C69.1828 -4.32919 37.8196 -0.665109 20.7353 20.939C3.65104 42.5432 7.31512 73.9064 28.9193 90.9907C47.603 105.766 73.5857 105.022 91.3192 90.5776L124.221 116.596L137.67 99.5879L104.769 73.5699ZM81.3012 24.0514C96.3301 35.9361 98.8791 57.754 86.9943 72.7829C75.1096 87.8119 53.2917 90.3608 38.2628 78.4761C23.2338 66.5914 20.6849 44.7735 32.5696 29.7446C44.4543 14.7156 66.2722 12.1667 81.3012 24.0514Z" fill="url(#paint1_linear_77:6)" shape-rendering="crispEdges"/>
</g>
<g filter="url(#filter2_df_77:6)">
<rect x="106.168" y="110.06" width="34.6928" height="52.0392" rx="5" transform="rotate(-51.6635 106.168 110.06)" fill="url(#paint2_linear_77:6)"/>
</g>
<defs>
<filter id="filter0_df_77:6" x="0.609131" y="50.7644" width="77.3889" height="76.7828" filterUnits="userSpaceOnUse" color-interpolation-filters="sRGB">
<feFlood flood-opacity="0" result="BackgroundImageFix"/>
<feColorMatrix in="SourceAlpha" type="matrix" values="0 0 0 0 0 0 0 0 0 0 0 0 0 0 0 0 0 0 127 0" result="hardAlpha"/>
<feOffset dy="2"/>
<feGaussianBlur stdDeviation="2"/>
<feComposite in2="hardAlpha" operator="out"/>
<feColorMatrix type="matrix" values="0 0 0 0 1 0 0 0 0 0.239216 0 0 0 0 0 0 0 0 0.25 0"/>
<feBlend mode="normal" in2="BackgroundImageFix" result="effect1_dropShadow_77:6"/>
<feBlend mode="normal" in="SourceGraphic" in2="effect1_dropShadow_77:6" result="shape"/>
<feGaussianBlur stdDeviation="0.5" result="effect2_foregroundBlur_77:6"/>
</filter>
<filter id="filter1_bdi_77:6" x="5.98022" y="-2" width="135.69" height="124.596" filterUnits="userSpaceOnUse" color-interpolation-filters="sRGB">
<feFlood flood-opacity="0" result="BackgroundImageFix"/>
<feGaussianBlur in="BackgroundImage" stdDeviation="2"/>
<feComposite in2="SourceAlpha" operator="in" result="effect1_backgroundBlur_77:6"/>
<feColorMatrix in="SourceAlpha" type="matrix" values="0 0 0 0 0 0 0 0 0 0 0 0 0 0 0 0 0 0 127 0" result="hardAlpha"/>
<feOffset dy="2"/>
<feGaussianBlur stdDeviation="2"/>
<feComposite in2="hardAlpha" operator="out"/>
<feColorMatrix type="matrix" values="0 0 0 0 0.298039 0 0 0 0 0.454902 0 0 0 0 1 0 0 0 0.25 0"/>
<feBlend mode="normal" in2="effect1_backgroundBlur_77:6" result="effect2_dropShadow_77:6"/>
<feBlend mode="normal" in="SourceGraphic" in2="effect2_dropShadow_77:6" result="shape"/>
<feColorMatrix in="SourceAlpha" type="matrix" values="0 0 0 0 0 0 0 0 0 0 0 0 0 0 0 0 0 0 127 0" result="hardAlpha"/>
<feOffset dy="2"/>
<feGaussianBlur stdDeviation="5"/>
<feComposite in2="hardAlpha" operator="arithmetic" k2="-1" k3="1"/>
<feColorMatrix type="matrix" values="0 0 0 0 0.439216 0 0 0 0 0.662745 0 0 0 0 1 0 0 0 0.25 0"/>
<feBlend mode="normal" in2="shape" result="effect3_innerShadow_77:6"/>
</filter>
<filter id="filter2_df_77:6" x="102.168" y="80.8479" width="70.3378" height="67.4912" filterUnits="userSpaceOnUse" color-interpolation-filters="sRGB">
<feFlood flood-opacity="0" result="BackgroundImageFix"/>
<feColorMatrix in="SourceAlpha" type="matrix" values="0 0 0 0 0 0 0 0 0 0 0 0 0 0 0 0 0 0 127 0" result="hardAlpha"/>
<feOffset dy="2"/>
<feGaussianBlur stdDeviation="2"/>
<feComposite in2="hardAlpha" operator="out"/>
<feColorMatrix type="matrix" values="0 0 0 0 0.298039 0 0 0 0 0.454902 0 0 0 0 1 0 0 0 0.25 0"/>
<feBlend mode="normal" in2="BackgroundImageFix" result="effect1_dropShadow_77:6"/>
<feBlend mode="normal" in="SourceGraphic" in2="effect1_dropShadow_77:6" result="shape"/>
<feGaussianBlur stdDeviation="0.5" result="effect2_foregroundBlur_77:6"/>
</filter>
<linearGradient id="paint0_linear_77:6" x1="29.9335" y1="66.1001" x2="49.6511" y2="110.714" gradientUnits="userSpaceOnUse">
<stop stop-color="#FFE092"/>
<stop offset="0.520833" stop-color="#FF9820"/>
<stop offset="1" stop-color="#FF3D00"/>
</linearGradient>
<linearGradient id="paint1_linear_77:6" x1="21.025" y1="34.7278" x2="122.935" y2="95.0065" gradientUnits="userSpaceOnUse">
<stop stop-color="#E4F9FF" stop-opacity="0.1"/>
<stop offset="1" stop-color="#E4F9FF" stop-opacity="0.8"/>
</linearGradient>
<linearGradient id="paint2_linear_77:6" x1="123.515" y1="110.06" x2="123.515" y2="162.099" gradientUnits="userSpaceOnUse">
<stop stop-color="#D4B2FF"/>
<stop offset="1" stop-color="#70A9FF"/>
</linearGradient>
</defs>
</svg>
